<?xml version="1.0" encoding="UTF-8" standalone="no"?>
<svg
   xmlns:dc="http://purl.org/dc/elements/1.1/"
   xmlns:cc="http://creativecommons.org/ns#"
   xmlns:rdf="http://www.w3.org/1999/02/22-rdf-syntax-ns#"
   xmlns:svg="http://www.w3.org/2000/svg"
   xmlns="http://www.w3.org/2000/svg"
   id="svg8"
   version="1.1"
   viewBox="0 0 141.58275 115.28274"
   height="115.28274mm"
   width="141.58275mm">
  <defs
     id="defs2" />
  <metadata
     id="metadata5">
    <rdf:RDF>
      <cc:Work
         rdf:about="">
        <dc:format>image/svg+xml</dc:format>
        <dc:type
           rdf:resource="http://purl.org/dc/dcmitype/StillImage" />
        <dc:title></dc:title>
      </cc:Work>
    </rdf:RDF>
  </metadata>
  <g
     transform="translate(-20.080252,-32.605654)"
     id="layer1">
    <circle
       r="50.611935"
       cy="90.247025"
       cx="88.068443"
       id="path815"
       style="opacity:1;fill:none;fill-opacity:1;stroke:#d7eef4;stroke-width:14.05887127;stroke-linecap:round;stroke-linejoin:miter;stroke-miterlimit:4;stroke-dasharray:none;stroke-dashoffset:0;stroke-opacity:1;paint-order:normal" />
    <g
       style="stroke:#ffffff;stroke-width:2.64583325;stroke-miterlimit:4;stroke-dasharray:none;paint-order:stroke markers fill"
       transform="translate(15.119048,-23.8125)"
       id="g845">
      <g
         id="text835"
         style="font-style:normal;font-variant:normal;font-weight:normal;font-stretch:normal;font-size:88.19444275px;line-height:41.69833374px;font-family:Sacramento;-inkscape-font-specification:Sacramento;text-align:start;letter-spacing:0px;word-spacing:0px;text-anchor:start;fill:#2c5aa0;fill-opacity:1;stroke:#ffffff;stroke-width:2.64583325;stroke-linecap:butt;stroke-linejoin:miter;stroke-miterlimit:4;stroke-dasharray:none;stroke-opacity:1;paint-order:stroke markers fill"
         transform="matrix(0.98993871,-0.25881904,0.02788129,1.002874,0,0)"
         aria-label="L">
        <path
           id="path937"
           style="font-style:normal;font-variant:normal;font-weight:normal;font-stretch:normal;font-size:88.19444275px;line-height:41.69833374px;font-family:Sacramento;-inkscape-font-specification:Sacramento;fill:#2c5aa0;stroke:#ffffff;stroke-width:2.64583325;stroke-miterlimit:4;stroke-dasharray:none;paint-order:stroke markers fill"
           d="m 83.904459,146.75448 q -0.04306,0.0861 -0.516764,0.73209 -0.473701,0.64595 -1.378039,1.59335 -0.861273,0.90434 -2.196248,1.98093 -1.291911,1.03353 -3.100586,1.93787 -1.765611,0.86127 -4.004923,1.46416 -2.239312,0.6029 -4.952325,0.6029 -4.220242,0 -7.923719,-1.0766 -3.703478,-1.03353 -7.148573,-2.66995 -3.402032,-1.63642 -6.717936,-3.61735 -3.315905,-1.98093 -6.761,-3.87573 -2.110121,3.53122 -4.866197,5.77054 -2.713013,2.19624 -5.684408,3.44509 -2.928331,1.24885 -5.856662,1.67949 -2.885267,0.4737 -5.339898,0.4737 -2.368503,0 -4.823134,-0.51677 -2.411566,-0.4737 -4.3924962,-1.59335 -1.9378662,-1.16272 -3.1867133,-3.01446 -1.2488471,-1.85174 -1.2488471,-4.60782 0,-2.58382 1.2057834,-4.65088 1.1627197,-2.11012 3.229777,-3.57428 2.1101212,-1.46417 4.9523242,-2.23932 2.842204,-0.81821 6.115045,-0.81821 2.45463,0 4.866197,0.43064 2.454631,0.43064 4.78007,1.16272 2.325439,0.73208 4.521688,1.67949 2.196248,0.90433 4.134114,1.85173 0.258382,-0.77514 0.430637,-1.55029 0.215319,-0.77515 0.34451,-1.67948 0.172254,-0.9474 0.215318,-2.06706 0.08613,-1.16272 0.08613,-2.66995 0,-1.4211 -0.08613,-2.71301 -0.04306,-1.29191 -0.129191,-2.79914 -0.04306,-1.55029 -0.129191,-3.4451 -0.04306,-1.93786 -0.04306,-4.60781 0,-6.15811 1.205784,-11.19656 1.205783,-5.08152 3.574286,-8.698868 2.368503,-3.617351 5.899726,-5.59828 3.531223,-2.023994 8.225165,-2.023994 2.842204,0 5.382962,0.904337 2.583822,0.904338 4.521688,2.583822 1.98093,1.679484 3.100586,4.004923 1.162719,2.32544 1.162719,5.16764 0,1.5503 -0.430637,3.22978 -0.430637,1.67948 -1.205783,3.10059 -0.732083,1.37803 -1.722548,2.28237 -0.947401,0.90434 -2.023993,0.90434 -0.602892,0 -1.076593,-0.34451 -0.4737,-0.34451 -0.4737,-1.07659 0,-0.51677 0.215318,-0.86128 0.258382,-0.38757 0.602892,-0.68902 1.248847,-1.11965 2.023994,-2.75607 0.81821,-1.63642 0.81821,-3.78961 0,-2.15318 -0.904338,-3.875729 -0.861274,-1.765611 -2.368503,-2.971395 -1.464166,-1.248847 -3.445095,-1.894802 -1.937867,-0.689019 -4.091051,-0.689019 -4.047987,0 -7.019382,1.765611 -2.971395,1.765612 -4.909261,4.995384 -1.937866,3.18672 -2.885267,7.75147 -0.904338,4.52169 -0.904338,10.0769 0,2.66995 0.04306,4.69395 0.08613,2.02399 0.129191,3.70347 0.08613,1.67949 0.129191,3.18672 0.08613,1.46416 0.08613,3.01446 0,0.90433 -0.08613,1.98093 -0.08613,1.03352 -0.258382,2.15318 -0.172255,1.07659 -0.473701,2.15318 -0.258382,1.03353 -0.602892,1.89481 3.272841,1.72254 6.459554,3.66041 3.186714,1.93787 6.459554,3.57429 3.315905,1.59335 6.804064,2.66995 3.531222,1.03352 7.450018,1.03352 3.445096,0 5.94279,-1.03352 2.540758,-1.03353 4.177178,-2.28238 1.679484,-1.29191 2.497694,-2.32544 0.818211,-1.07659 0.818211,-1.11965 0.4737,-0.77515 1.378038,-0.77515 0.732083,0 1.162719,0.51676 0.473701,0.51677 0.473701,1.11966 0,0.4737 -0.258382,0.86127 z M 36.362142,142.2328 q -1.851739,-0.90434 -3.918796,-1.76562 -2.023993,-0.90433 -4.177178,-1.59335 -2.153185,-0.68902 -4.43556,-1.0766 -2.239312,-0.43063 -4.478624,-0.43063 -2.540758,0 -4.78007,0.55983 -2.239312,0.51676 -3.918796,1.55029 -1.6794844,1.03353 -2.6699494,2.49769 -0.9474012,1.46417 -0.9474012,3.31591 0,1.72254 0.8612738,3.01446 0.8612739,1.24884 2.2823758,2.11012 1.464166,0.81821 3.358968,1.24884 1.894802,0.38758 3.96186,0.38758 2.497694,0 5.167643,-0.38758 2.669949,-0.43063 5.167643,-1.50723 2.497694,-1.11965 4.693942,-3.01445 2.196249,-1.93787 3.832669,-4.90926 z" />
      </g>
      <g
         id="text839"
         style="font-style:normal;font-variant:normal;font-weight:normal;font-stretch:normal;font-size:88.19444275px;line-height:41.69833374px;font-family:Sacramento;-inkscape-font-specification:Sacramento;text-align:start;letter-spacing:0px;word-spacing:0px;text-anchor:start;fill:#2c5aa0;fill-opacity:1;stroke:#ffffff;stroke-width:2.64583325;stroke-linecap:butt;stroke-linejoin:miter;stroke-miterlimit:4;stroke-dasharray:none;stroke-opacity:1;paint-order:stroke markers fill"
         transform="matrix(0.98993871,-0.25881904,0.02788129,1.002874,0,0)"
         aria-label="ogo">
        <path
           d="m 131.5679,136.78501 q -1.07659,0 -1.8948,-0.17225 -0.64596,1.29191 -1.5503,2.41156 -0.90433,1.0766 -2.11012,1.89481 -1.16272,0.81821 -2.62688,1.29191 -1.46417,0.4737 -3.18672,0.4737 -2.02399,0 -3.70347,-0.73208 -1.67949,-0.68902 -2.92833,-1.93787 -1.24885,-1.29191 -1.93787,-3.05752 -0.68902,-1.80868 -0.68902,-3.96186 0,-2.75608 0.99047,-4.78007 0.99046,-2.06706 2.28237,-3.40203 1.29191,-1.37804 2.58382,-2.024 1.29191,-0.68902 1.93787,-0.68902 0.73208,0 1.07659,0.38758 0.38757,0.38757 0.38757,1.03352 0,0.73209 -0.4737,1.11966 -0.43063,0.34451 -1.11965,0.68902 -0.68902,0.34451 -1.46417,0.99046 -0.77514,0.6029 -1.46416,1.5503 -0.64596,0.9474 -1.0766,2.23931 -0.43063,1.29191 -0.43063,2.88527 0,1.4211 0.43063,2.66995 0.43064,1.20578 1.24885,2.11012 0.81821,0.86127 1.93787,1.37804 1.11965,0.4737 2.49769,0.4737 2.45463,0 4.04799,-1.11966 1.63642,-1.16272 2.49769,-2.92833 -2.54075,-1.33498 -4.17717,-3.78961 -1.63643,-2.45463 -1.63643,-5.51215 0,-2.45463 1.16272,-4.00492 1.20579,-1.5503 3.14365,-1.5503 1.16272,0 2.19625,0.55983 1.03353,0.55983 1.80868,1.76561 0.81821,1.20579 1.29191,3.10059 0.4737,1.8948 0.4737,4.52169 0,1.37804 -0.34451,2.88527 0.25838,0.0431 0.51676,0.0431 0.25839,0 0.55983,0 1.46417,0 2.62689,-0.34451 1.16272,-0.34451 2.11012,-1.03353 0.9474,-0.68902 1.67948,-1.76561 0.77515,-1.07659 1.46417,-2.49769 0.12919,-0.25839 0.55983,-0.47371 0.43063,-0.25838 0.86127,-0.25838 0.55983,0 1.03353,0.4737 0.51676,0.43064 0.51676,1.16272 0,0.34451 -0.17225,0.77515 -0.17226,0.38757 -0.34451,0.73208 -0.73208,1.29191 -1.72255,2.4977 -0.9474,1.16272 -2.28238,2.06705 -1.29191,0.86128 -2.92833,1.37804 -1.63642,0.51677 -3.66041,0.4737 z m -7.36389,-10.85205 q 0,0.81821 0.21532,1.72255 0.21531,0.90434 0.64595,1.80867 0.4737,0.86128 1.11966,1.67949 0.68902,0.77514 1.59335,1.33497 0.1292,-0.90433 0.1292,-1.76561 0,-1.16272 -0.17226,-2.3685 -0.17225,-1.20578 -0.51676,-2.19625 -0.30145,-1.03353 -0.77515,-1.63642 -0.4737,-0.64596 -1.11966,-0.64596 -0.25838,0 -0.68902,0.38758 -0.43063,0.38757 -0.43063,1.67948 z m -23.77116,19.8093 q 8.09598,-10.5506 11.23963,-17.52692 0.21531,-0.4737 0.55982,-0.68902 0.38758,-0.25838 0.86128,-0.25838 0.73208,0 1.20578,0.51676 0.4737,0.4737 0.4737,1.11966 0,0.30144 -0.12919,0.60289 -1.8948,4.30637 -5.38296,9.6032 -3.48816,5.29684 -8.82806,11.97171 0,2.71301 0.0431,5.42602 0.0431,2.71302 0.0431,5.94279 0,3.22978 -0.17226,6.37343 -0.12919,3.18671 -0.51676,6.02892 -0.387573,2.88526 -1.076592,5.29683 -0.645956,2.45463 -1.722548,4.22024 -1.033529,1.80868 -2.540758,2.79914 -1.464165,1.03353 -3.488159,1.03353 -2.885267,0 -4.43556,-2.19625 -1.550293,-2.19625 -1.550293,-6.24423 0,-2.15319 0.387573,-4.69394 0.430637,-2.4977 1.205783,-5.16765 0.775147,-2.66995 1.851739,-5.42602 1.119656,-2.71302 2.454631,-5.29684 1.334974,-2.58382 2.885267,-4.95232 1.593357,-2.36851 3.358968,-4.30637 0.04306,-3.01446 0.04306,-5.98585 0.04306,-2.9714 0.129191,-5.46909 -1.291911,1.63642 -3.100586,2.58382 -1.765611,0.9474 -3.531223,0.9474 -1.507229,0 -2.756076,-0.55983 -1.205784,-0.60289 -2.067057,-1.63642 -0.861274,-1.07659 -1.334975,-2.49769 -0.473701,-1.42111 -0.473701,-3.10059 0,-3.35897 1.119656,-5.89973 1.16272,-2.58382 2.928332,-4.30636 1.765611,-1.72255 3.875732,-2.58383 2.153185,-0.86127 4.134114,-0.86127 1.334975,0 2.454631,0.34451 1.119656,0.34451 1.894811,0.77515 0.81821,0.43063 1.24884,0.81821 0.43064,0.38757 0.4737,0.43063 0.4737,0.51677 0.4737,1.16272 0,0.64596 -0.4737,1.16272 -0.4737,0.4737 -1.11965,0.4737 -0.60289,0 -1.162727,-0.4737 -0.172254,-0.12919 -0.4737,-0.34451 -0.258382,-0.25838 -0.732083,-0.51676 -0.430637,-0.25838 -1.076592,-0.43064 -0.602892,-0.17225 -1.464166,-0.17225 -1.291911,0 -2.842204,0.60289 -1.550293,0.55983 -2.885267,1.80867 -1.334975,1.24885 -2.239312,3.22978 -0.904338,1.93787 -0.904338,4.69394 0,2.06706 0.904338,3.35897 0.904337,1.24885 2.79914,1.24885 0.904338,0 1.894802,-0.51677 1.033529,-0.51676 1.98093,-1.59335 0.947402,-1.07659 1.636421,-2.71302 0.732082,-1.63642 1.033528,-3.87573 0.08613,-0.60289 0.559828,-0.99046 0.473701,-0.43064 1.119656,-0.43064 0.732083,0 1.119656,0.51676 0.43064,0.51677 0.43064,1.16272 0,0.0431 -0.0431,1.33498 -0.0431,1.24885 -0.0861,3.35897 -0.0431,2.11012 -0.12919,4.90926 -0.0431,2.75607 -0.0861,5.85666 z m -3.272839,9.43095 q -2.023994,2.79914 -3.660414,6.07198 -1.63642,3.3159 -2.79914,6.67487 -1.16272,3.35897 -1.808675,6.50262 -0.602892,3.18671 -0.602892,5.68441 0,1.59335 0.258382,2.54076 0.301446,0.9474 0.68902,1.46416 0.430636,0.51676 0.904337,0.68902 0.516764,0.17225 0.947401,0.17225 1.334975,0 2.32544,-1.07659 0.990465,-1.07659 1.679484,-2.88527 0.689019,-1.76561 1.119656,-4.09105 0.430637,-2.32544 0.645955,-4.82313 0.215319,-2.45463 0.301446,-4.90926 0.08613,-2.45463 0.08613,-4.52169 0,-1.85174 0,-3.70348 0,-1.85173 -0.08613,-3.7896 z m -20.369127,-18.3882 q -1.076593,0 -1.894803,-0.17225 -0.645955,1.29191 -1.550293,2.41156 -0.904337,1.0766 -2.110121,1.89481 -1.162719,0.81821 -2.626885,1.29191 -1.464165,0.4737 -3.186713,0.4737 -2.023994,0 -3.703478,-0.73208 -1.679484,-0.68902 -2.928331,-1.93787 -1.248847,-1.29191 -1.937866,-3.05752 -0.689019,-1.80868 -0.689019,-3.96186 0,-2.75608 0.990465,-4.78007 0.990465,-2.06706 2.282376,-3.40203 1.29191,-1.37804 2.583821,-2.024 1.291911,-0.68902 1.937866,-0.68902 0.732083,0 1.076593,0.38758 0.387573,0.38757 0.387573,1.03352 0,0.73209 -0.473701,1.11966 -0.430637,0.34451 -1.119656,0.68902 -0.689019,0.34451 -1.464165,0.99046 -0.775147,0.6029 -1.464166,1.5503 -0.645955,0.9474 -1.076592,2.23931 -0.430637,1.29191 -0.430637,2.88527 0,1.4211 0.430637,2.66995 0.430637,1.20578 1.248847,2.11012 0.81821,0.86127 1.937866,1.37804 1.119656,0.4737 2.497694,0.4737 2.454631,0 4.047987,-1.11966 1.636421,-1.16272 2.497695,-2.92833 -2.540758,-1.33498 -4.177179,-3.78961 -1.63642,-2.45463 -1.63642,-5.51215 0,-2.45463 1.16272,-4.00492 1.205783,-1.5503 3.143649,-1.5503 1.16272,0 2.196249,0.55983 1.033528,0.55983 1.808675,1.76561 0.81821,1.20579 1.291911,3.10059 0.4737,1.8948 0.4737,4.52169 0,1.37804 -0.344509,2.88527 0.258382,0.0431 0.516764,0.0431 0.258382,0 0.559828,0 1.464166,0 2.626885,-0.34451 1.16272,-0.34451 2.110121,-1.03353 0.947401,-0.68902 1.679484,-1.76561 0.775147,-1.07659 1.464166,-2.49769 0.129191,-0.25839 0.559828,-0.47371 0.430637,-0.25838 0.861274,-0.25838 0.559828,0 1.033528,0.4737 0.516765,0.43064 0.516765,1.16272 0,0.34451 -0.172255,0.77515 -0.172255,0.38757 -0.34451,0.73208 -0.732083,1.29191 -1.722547,2.4977 -0.947402,1.16272 -2.282376,2.06705 -1.291911,0.86128 -2.928331,1.37804 -1.636421,0.51677 -3.660414,0.4737 z m -7.363892,-10.85205 q 0,0.81821 0.215319,1.72255 0.215318,0.90434 0.645955,1.80867 0.473701,0.86128 1.119656,1.67949 0.689019,0.77514 1.593357,1.33497 0.129191,-0.90433 0.129191,-1.76561 0,-1.16272 -0.172255,-2.3685 -0.172255,-1.20578 -0.516764,-2.19625 -0.301446,-1.03353 -0.775147,-1.63642 -0.4737,-0.64596 -1.119656,-0.64596 -0.258382,0 -0.689019,0.38758 -0.430637,0.38757 -0.430637,1.67948 z"
           style="font-style:normal;font-variant:normal;font-weight:normal;font-stretch:normal;font-size:88.19444275px;line-height:41.69833374px;font-family:Sacramento;-inkscape-font-specification:Sacramento;fill:#2c5aa0;stroke:#ffffff;stroke-width:2.64583325;stroke-miterlimit:4;stroke-dasharray:none;paint-order:stroke markers fill"
           id="path933" />
      </g>
    </g>
    <g
       id="text827"
       style="font-style:normal;font-variant:normal;font-weight:normal;font-stretch:normal;font-size:25.39999962px;line-height:41.69833374px;font-family:Sacramento;-inkscape-font-specification:Sacramento;text-align:start;letter-spacing:0px;word-spacing:0px;text-anchor:start;fill:#00aad4;fill-opacity:1;stroke:#ffffff;stroke-width:2.64583325;stroke-linecap:butt;stroke-linejoin:miter;stroke-miterlimit:4;stroke-dasharray:none;stroke-opacity:1;paint-order:stroke markers fill"
       transform="matrix(0.99113063,-0.25421655,0.02322119,1.0029927,0,0)"
       aria-label="awesome">
      <path
         d="m 148.1495,95.669991 q 0.26045,0.359668 0.66973,0.58291 0.40928,0.21084 1.00459,0.21084 0.60772,0 1.10381,-0.285254 0.49609,-0.297657 0.90537,-0.768946 0.40928,-0.471289 0.73174,-1.054199 0.32246,-0.58291 0.58291,-1.16582 0.062,-0.136426 0.17363,-0.198438 0.11162,-0.07441 0.24805,-0.07441 0.21084,0 0.33486,0.148828 0.13643,0.148829 0.13643,0.322461 0,0.06201 -0.0124,0.111621 -0.0124,0.03721 -0.0372,0.08682 -0.85576,1.885156 -1.87276,2.840137 -1.00459,0.95498 -2.28203,0.979785 -0.81855,0 -1.41386,-0.322461 -0.59532,-0.310059 -0.97979,-0.806153 -0.38447,-0.508496 -0.57051,-1.141015 -0.18603,-0.63252 -0.18603,-1.265039 0,-0.63252 0.14883,-1.165821 0.16123,-0.5333 0.44648,-0.930175 0.29766,-0.396875 0.69453,-0.620117 0.40928,-0.223243 0.89297,-0.223243 0.28525,0 0.55811,0.124024 0.28525,0.111621 0.50849,0.334863 0.22324,0.21084 0.35967,0.520898 0.13643,0.310059 0.13643,0.706934 0,0.508496 -0.17364,0.95498 -0.17363,0.446485 -0.48369,0.830958 -0.29766,0.384472 -0.71933,0.706933 -0.42168,0.322461 -0.90538,0.558106 z m -0.37207,-0.806153 q 0.38448,-0.16123 0.69453,-0.409277 0.32247,-0.248047 0.54571,-0.545703 0.22324,-0.297656 0.34726,-0.620117 0.12403,-0.334864 0.12403,-0.669727 0,-0.37207 -0.18604,-0.558105 -0.18603,-0.198438 -0.43408,-0.198438 -0.33486,0 -0.57051,0.186035 -0.23564,0.186035 -0.38447,0.483692 -0.14883,0.297656 -0.22324,0.669726 -0.062,0.359668 -0.062,0.719336 0,0.223242 0.0372,0.471289 0.0496,0.248047 0.11162,0.471289 z M 133.3039,95.93044 q 0.18603,-0.372071 0.47129,-0.917774 0.29765,-0.558105 0.60771,-1.116211 0.32246,-0.558105 0.62012,-1.054199 0.31006,-0.496094 0.5209,-0.756543 0.35966,-0.434082 0.74414,-0.620117 0.38447,-0.186035 0.70693,-0.186035 0.32246,0 0.5457,0.136426 0.23565,0.136425 0.38448,0.37207 0.14882,0.223242 0.22324,0.533301 0.0744,0.297656 0.0744,0.644922 0,0.198437 -0.0248,0.520898 -0.0124,0.322461 -0.0372,0.694531 -0.0124,0.372071 -0.0372,0.768946 -0.0124,0.396875 -0.0248,0.74414 0.18603,-0.37207 0.42168,-0.818554 0.23564,-0.458887 0.47129,-0.905372 0.24804,-0.446484 0.47129,-0.830957 0.22324,-0.396875 0.40927,-0.644921 0.53331,-0.731739 0.99219,-0.979786 0.47129,-0.248046 0.83096,-0.248046 0.42168,0 0.69453,0.16123 0.27285,0.148828 0.42168,0.396875 0.16123,0.235645 0.22324,0.533301 0.062,0.297656 0.062,0.570508 0,0.421679 -0.062,0.880566 -0.062,0.458887 -0.062,1.091406 0,0.260449 0.0248,0.520899 0.0248,0.260449 0.0992,0.458886 0.0868,0.198438 0.26045,0.322461 0.17364,0.124024 0.47129,0.124024 0.32246,0 0.63252,-0.161231 0.31006,-0.173633 0.59531,-0.446484 0.28526,-0.272852 0.5333,-0.620117 0.26045,-0.347266 0.47129,-0.694531 0.21084,-0.347266 0.37207,-0.657325 0.16123,-0.322461 0.26045,-0.545703 0.062,-0.136426 0.17364,-0.21084 0.11162,-0.07441 0.24804,-0.07441 0.21084,0 0.33487,0.161231 0.13642,0.148828 0.13642,0.322461 0,0.08682 -0.0372,0.173632 -0.0496,0.09922 -0.19844,0.42168 -0.14883,0.310059 -0.39688,0.719336 -0.24804,0.396875 -0.58291,0.843359 -0.32246,0.446485 -0.71933,0.830957 -0.39688,0.372071 -0.85577,0.620118 -0.45888,0.235644 -0.96738,0.235644 -0.5457,0 -0.89297,-0.198437 -0.33486,-0.186035 -0.5457,-0.508496 -0.19844,-0.322461 -0.27285,-0.744141 -0.0744,-0.42168 -0.0744,-0.880566 0,-0.607715 0.062,-1.116211 0.062,-0.520899 0.062,-0.806153 0,-0.310058 -0.062,-0.471289 -0.0496,-0.16123 -0.13643,-0.223242 -0.0744,-0.07441 -0.14883,-0.07441 -0.0744,-0.0124 -0.11162,-0.0124 -0.29765,0 -0.63252,0.334863 -0.32246,0.322461 -0.66972,0.868164 -0.34727,0.545703 -0.71934,1.240234 -0.35967,0.694532 -0.73174,1.413868 -0.21084,0.396875 -0.35967,0.657324 -0.13642,0.260449 -0.27285,0.409277 -0.12402,0.148828 -0.24805,0.21084 -0.12402,0.06201 -0.27285,0.06201 -0.32246,0 -0.49609,-0.223243 -0.16123,-0.223242 -0.16123,-0.58291 0,-0.186035 0.0124,-0.496093 0.0124,-0.310059 0.0248,-0.682129 0.0124,-0.372071 0.0372,-0.768946 0.0248,-0.396875 0.0372,-0.756543 0.0124,-0.37207 0.0248,-0.657324 0.0124,-0.285254 0.0124,-0.434082 0,-0.322461 -0.11162,-0.458887 -0.11163,-0.148828 -0.26045,-0.148828 -0.13643,0 -0.31006,0.09922 -0.16123,0.09922 -0.38447,0.384473 -0.17364,0.223242 -0.44649,0.657324 -0.26045,0.42168 -0.5581,0.942578 -0.29766,0.520899 -0.59532,1.066602 -0.28525,0.545703 -0.49609,0.979785 -0.26045,0.520898 -0.5209,0.706933 -0.26045,0.198438 -0.5085,0.198438 -0.35966,0 -0.5333,-0.21084 -0.17363,-0.223242 -0.17363,-0.58291 0,-0.03721 0.0124,-0.446485 0.0248,-0.409277 0.0496,-0.992187 0.0248,-0.595312 0.0496,-1.265039 0.0372,-0.669727 0.062,-1.252637 0.0124,-0.310058 -0.0248,-0.570508 -0.0372,-0.260449 -0.0992,-0.310058 -0.0992,0.02481 -0.39687,0.458887 -0.28526,0.434082 -0.73174,1.513085 -0.062,0.136426 -0.18604,0.21084 -0.12402,0.07441 -0.26045,0.07441 -0.21084,0 -0.33486,-0.136425 -0.12402,-0.148829 -0.12402,-0.334864 0,-0.08682 0.0372,-0.186035 0.55811,-1.327051 1.0666,-1.947168 0.5085,-0.632519 0.99219,-0.632519 0.28526,0 0.47129,0.136426 0.19844,0.124023 0.31006,0.334863 0.11162,0.198437 0.16123,0.458886 0.0496,0.26045 0.0496,0.508497 0,1.103808 -0.062,2.021582 -0.0496,0.917773 -0.11162,1.847949 z m -5.18418,-0.260449 q -0.31006,0 -0.5457,-0.04961 -0.18604,0.37207 -0.44649,0.694531 -0.26045,0.310059 -0.60771,0.545704 -0.33487,0.235644 -0.75655,0.37207 -0.42168,0.136426 -0.91777,0.136426 -0.58291,0 -1.0666,-0.21084 -0.48369,-0.198438 -0.84336,-0.558106 -0.35967,-0.37207 -0.55811,-0.880566 -0.19843,-0.520898 -0.19843,-1.141016 0,-0.79375 0.28525,-1.37666 0.28525,-0.595312 0.65733,-0.979785 0.37207,-0.396875 0.74414,-0.58291 0.37207,-0.198438 0.5581,-0.198438 0.21084,0 0.31006,0.111621 0.11162,0.111622 0.11162,0.297657 0,0.21084 -0.13642,0.322461 -0.12403,0.09922 -0.32247,0.198437 -0.19843,0.09922 -0.42168,0.285254 -0.22324,0.173633 -0.42168,0.446484 -0.18603,0.272852 -0.31005,0.644922 -0.12403,0.372071 -0.12403,0.830957 0,0.409278 0.12403,0.768946 0.12402,0.347265 0.35966,0.607714 0.23565,0.248047 0.55811,0.396875 0.32246,0.136426 0.71934,0.136426 0.70693,0 1.16582,-0.322461 0.47128,-0.334863 0.71933,-0.843359 -0.73174,-0.384473 -1.20303,-1.091406 -0.47128,-0.706934 -0.47128,-1.5875 0,-0.706934 0.33486,-1.153418 0.34726,-0.446485 0.90537,-0.446485 0.33486,0 0.63252,0.161231 0.29766,0.16123 0.5209,0.508496 0.23564,0.347266 0.37207,0.892969 0.13642,0.545703 0.13642,1.302246 0,0.396875 -0.0992,0.830957 0.0744,0.0124 0.14882,0.0124 0.0744,0 0.16123,0 0.42168,0 0.75655,-0.09922 0.33486,-0.09922 0.60771,-0.297656 0.27285,-0.198437 0.48369,-0.508496 0.22325,-0.310059 0.42168,-0.719336 0.0372,-0.07441 0.16123,-0.136426 0.12403,-0.07441 0.24805,-0.07441 0.16123,0 0.29766,0.136426 0.14882,0.124024 0.14882,0.334863 0,0.09922 -0.0496,0.223243 -0.0496,0.111621 -0.0992,0.210839 -0.21084,0.372071 -0.4961,0.719336 -0.27285,0.334864 -0.65732,0.595313 -0.37207,0.248047 -0.84336,0.396875 -0.47129,0.148828 -1.0542,0.136426 z m -2.1208,-3.125391 q 0,0.235645 0.062,0.496094 0.062,0.260449 0.18604,0.520898 0.13642,0.248047 0.32246,0.483692 0.19843,0.223242 0.45888,0.384472 0.0372,-0.260449 0.0372,-0.508496 0,-0.334863 -0.0496,-0.682129 -0.0496,-0.347265 -0.14883,-0.632519 -0.0868,-0.297657 -0.22324,-0.471289 -0.13643,-0.186036 -0.32246,-0.186036 -0.0744,0 -0.19844,0.111622 -0.12402,0.111621 -0.12402,0.483691 z m -8.66924,-0.09922 q -0.0744,0.198438 -0.18603,0.446485 -0.0992,0.248046 -0.23565,0.520898 -0.11162,0.21084 -0.23564,0.334863 -0.11162,0.111621 -0.29766,0.111621 -0.21084,0 -0.33486,-0.124023 -0.12403,-0.136426 -0.12403,-0.310059 0,-0.06201 0.0124,-0.09922 0.0124,-0.04961 0.062,-0.148828 0.32246,-0.620118 0.47129,-1.079004 0.16123,-0.471289 0.26045,-0.979786 -0.0868,-0.285253 -0.12403,-0.483691 -0.0372,-0.198437 -0.0372,-0.409277 0,-0.409278 0.17363,-0.657324 0.17363,-0.26045 0.48369,-0.26045 0.28525,0 0.44648,0.248047 0.17364,0.248047 0.17364,0.607715 0,0.198438 -0.0372,0.396875 -0.0372,0.198438 -0.0992,0.496094 0.28525,0.706933 0.57051,1.252636 0.28525,0.545704 0.50849,1.00459 0.22325,0.446485 0.35967,0.84336 0.14883,0.396875 0.14883,0.79375 0,0.520898 -0.21084,0.992187 -0.21084,0.471289 -0.69453,0.79375 0.062,0.0124 0.12402,0.0124 0.062,0 0.12403,0 0.70693,0 1.30224,-0.32246 0.59532,-0.322461 1.0666,-0.830958 0.4837,-0.520898 0.85577,-1.141015 0.37207,-0.63252 0.64492,-1.252637 0.12402,-0.285254 0.34726,-0.285254 0.21084,0 0.32246,0.148828 0.12403,0.148829 0.12403,0.322461 0,0.09922 -0.0372,0.186035 -0.13642,0.334864 -0.35967,0.768946 -0.21084,0.421679 -0.5209,0.880566 -0.29765,0.446485 -0.69453,0.880567 -0.39687,0.434082 -0.89297,0.781347 -0.48369,0.334864 -1.0666,0.533301 -0.58291,0.21084 -1.27744,0.21084 -0.83096,0 -1.55029,-0.297656 -0.70694,-0.285254 -1.15342,-0.954981 -0.0744,-0.111621 -0.0744,-0.235644 0,-0.186036 0.13642,-0.322461 0.14883,-0.148828 0.33487,-0.148828 0.19843,0 0.33486,0.136425 0.0124,0.02481 0.0868,0.08682 0.0744,0.04961 0.17363,0.124023 0.11162,0.06201 0.24804,0.111621 0.14883,0.04961 0.29766,0.04961 0.29766,0 0.49609,-0.124024 0.21084,-0.124023 0.33487,-0.297656 0.12402,-0.186035 0.17363,-0.384473 0.062,-0.21084 0.062,-0.359668 0,-0.310058 -0.0992,-0.620117 -0.0992,-0.310058 -0.26045,-0.620117 -0.14882,-0.310059 -0.33486,-0.63252 -0.17363,-0.334863 -0.32246,-0.694531 z m -6.38721,3.22461 q 0.26045,0.359668 0.66973,0.58291 0.40928,0.21084 1.00459,0.21084 0.60771,0 1.10381,-0.285254 0.49609,-0.297657 0.90537,-0.768946 0.40928,-0.471289 0.73174,-1.054199 0.32246,-0.58291 0.58291,-1.16582 0.062,-0.136426 0.17363,-0.198438 0.11162,-0.07441 0.24805,-0.07441 0.21084,0 0.33486,0.148828 0.13643,0.148829 0.13643,0.322461 0,0.06201 -0.0124,0.111621 -0.0124,0.03721 -0.0372,0.08682 -0.85577,1.885156 -1.87276,2.840137 -1.00459,0.95498 -2.28203,0.979785 -0.81855,0 -1.41387,-0.322461 -0.59531,-0.310059 -0.97978,-0.806153 -0.38447,-0.508496 -0.57051,-1.141015 -0.18603,-0.63252 -0.18603,-1.265039 0,-0.63252 0.14882,-1.165821 0.16123,-0.5333 0.44649,-0.930175 0.29766,-0.396875 0.69453,-0.620117 0.40928,-0.223243 0.89297,-0.223243 0.28525,0 0.5581,0.124024 0.28526,0.111621 0.5085,0.334863 0.22324,0.21084 0.35967,0.520898 0.13642,0.310059 0.13642,0.706934 0,0.508496 -0.17363,0.95498 -0.17363,0.446485 -0.48369,0.830958 -0.29766,0.384472 -0.71934,0.706933 -0.42168,0.322461 -0.90537,0.558106 z m -0.37207,-0.806153 q 0.38448,-0.16123 0.69453,-0.409277 0.32246,-0.248047 0.54571,-0.545703 0.22324,-0.297656 0.34726,-0.620117 0.12403,-0.334864 0.12403,-0.669727 0,-0.37207 -0.18604,-0.558105 -0.18603,-0.198438 -0.43408,-0.198438 -0.33486,0 -0.57051,0.186035 -0.23564,0.186035 -0.38447,0.483692 -0.14883,0.297656 -0.22324,0.669726 -0.062,0.359668 -0.062,0.719336 0,0.223242 0.0372,0.471289 0.0496,0.248047 0.11162,0.471289 z m -4.17959,-1.277441 q -0.0372,0.644922 -0.17363,1.302246 -0.13642,0.644922 -0.43408,1.16582 -0.28525,0.520899 -0.75654,0.855762 -0.47129,0.322461 -1.16582,0.322461 -0.43409,0 -0.76895,-0.136426 -0.32246,-0.124023 -0.57051,-0.334863 -0.23564,-0.223242 -0.39687,-0.496094 -0.16123,-0.285254 -0.27285,-0.595312 -0.43409,0.719335 -1.0294,1.11621 -0.58291,0.384473 -1.165819,0.384473 -0.471289,0 -0.855761,-0.173633 -0.372071,-0.173632 -0.644922,-0.483691 -0.260449,-0.322461 -0.409278,-0.768945 -0.148828,-0.446485 -0.148828,-1.00459 0,-0.930176 0.161231,-1.599903 0.173633,-0.682128 0.37207,-1.11621 0.21084,-0.434082 0.384473,-0.644922 0.173633,-0.223242 0.173633,-0.223242 0.06201,-0.07442 0.148828,-0.111622 0.09922,-0.03721 0.198437,-0.03721 0.198438,0 0.322461,0.148829 0.136426,0.136425 0.136426,0.32246 0,0.136426 -0.09922,0.297657 -0.04961,0.07441 -0.198437,0.285254 -0.136426,0.210839 -0.285254,0.570507 -0.148828,0.359668 -0.272852,0.880567 -0.111621,0.520898 -0.111621,1.227832 0,0.731738 0.297656,1.116211 0.297657,0.37207 0.830957,0.37207 0.26045,0 0.57051,-0.136426 0.31006,-0.148828 0.58291,-0.446484 0.27285,-0.297656 0.47129,-0.756543 0.19844,-0.458887 0.24805,-1.079004 l 0.16123,-2.133203 q 0.0124,-0.186035 0.14882,-0.310059 0.14883,-0.124023 0.33487,-0.124023 0.21084,0 0.33486,0.16123 0.12402,0.148828 0.12402,0.347266 l -0.13642,2.046387 q -0.0372,0.657324 0.0372,1.128613 0.0868,0.471289 0.27285,0.781348 0.18603,0.297656 0.45888,0.446484 0.27285,0.136426 0.60772,0.136426 0.44648,0 0.75654,-0.260449 0.31006,-0.26045 0.49609,-0.706934 0.18604,-0.446484 0.26045,-1.029395 0.0868,-0.595312 0.0868,-1.252636 0,-0.781348 -0.0868,-1.302246 -0.0868,-0.520899 -0.0868,-0.694532 0,-0.186035 0.13642,-0.322461 0.13643,-0.148828 0.33487,-0.148828 0.17363,0 0.29765,0.111621 0.12403,0.09922 0.16123,0.272852 0.0124,0.04961 0.0744,0.285254 0.062,0.235644 0.17363,0.570508 0.11162,0.322461 0.28525,0.694531 0.18604,0.359668 0.43409,0.669727 0.26045,0.310058 0.58291,0.520898 0.33486,0.198437 0.75654,0.198437 0.23564,0 0.39687,-0.08682 0.17364,-0.09922 0.28526,-0.223242 0.11162,-0.124024 0.16123,-0.235645 0.062,-0.111621 0.0744,-0.136425 0.062,-0.136426 0.17364,-0.21084 0.12402,-0.08682 0.26044,-0.08682 0.21084,0 0.33487,0.161231 0.13642,0.148828 0.13642,0.322461 0,0.148828 -0.13642,0.396875 -0.12403,0.248047 -0.35967,0.483691 -0.23564,0.223242 -0.58291,0.396875 -0.33486,0.161231 -0.74414,0.161231 -0.35967,0 -0.66973,-0.09922 -0.31006,-0.111621 -0.58291,-0.285254 -0.26045,-0.173633 -0.48369,-0.396875 -0.22324,-0.223242 -0.40928,-0.471289 z m -7.838277,-0.0124 q -0.04961,0.09922 -0.21084,0.42168 -0.148828,0.310059 -0.396875,0.719336 -0.235645,0.409277 -0.558105,0.855762 -0.322461,0.446484 -0.719336,0.818554 -0.396875,0.372071 -0.855762,0.620118 -0.458887,0.235644 -0.967383,0.235644 -0.719336,0 -1.21543,-0.458887 -0.483691,-0.458886 -0.706933,-1.153417 -0.42168,0.706933 -1.00459,1.128613 -0.58291,0.409277 -1.16582,0.409277 -0.458887,0 -0.830957,-0.16123 -0.372071,-0.173633 -0.63252,-0.471289 -0.260449,-0.310059 -0.409277,-0.719336 -0.136426,-0.409278 -0.136426,-0.892969 0,-0.967383 0.322461,-1.699121 0.334863,-0.744141 0.843359,-1.240234 0.508496,-0.496094 1.116211,-0.744141 0.620117,-0.248047 1.190625,-0.248047 0.384473,0 0.706934,0.111621 0.322461,0.09922 0.545703,0.223242 0.235644,0.124024 0.359668,0.235645 0.124023,0.09922 0.136426,0.111621 0.136425,0.16123 0.136425,0.334863 0,0.186035 -0.136425,0.334863 -0.136426,0.136426 -0.322461,0.136426 -0.198438,0 -0.334864,-0.136426 -0.0248,-0.0248 -0.111621,-0.08682 -0.08682,-0.07441 -0.235644,-0.148828 -0.148828,-0.07441 -0.359668,-0.124023 -0.198438,-0.06201 -0.458887,-0.06201 -0.384472,0 -0.818554,0.173633 -0.434083,0.173632 -0.79375,0.545703 -0.359668,0.359668 -0.607715,0.917773 -0.235645,0.545703 -0.235645,1.302246 0,0.235645 0.04961,0.483692 0.04961,0.235644 0.173632,0.434082 0.124024,0.198437 0.334864,0.322461 0.210839,0.124023 0.520898,0.124023 0.223242,0 0.508496,-0.148828 0.297656,-0.148828 0.558106,-0.458887 0.272851,-0.310058 0.483691,-0.781347 0.223242,-0.47129 0.310059,-1.116211 0.0248,-0.173633 0.16123,-0.285254 0.136426,-0.124024 0.322461,-0.124024 0.173633,0 0.297656,0.136426 0.136426,0.136426 0.148828,0.310059 0.0124,0.235644 0.04961,0.669726 0.03721,0.42168 0.16123,0.84336 0.136426,0.421679 0.396875,0.731738 0.260449,0.310058 0.719336,0.310058 0.297656,0 0.58291,-0.16123 0.297657,-0.161231 0.570508,-0.42168 0.285254,-0.272851 0.533301,-0.607715 0.260449,-0.347265 0.471289,-0.694531 0.21084,-0.347265 0.37207,-0.669726 0.161231,-0.322461 0.272852,-0.558106 0.06201,-0.136426 0.173633,-0.21084 0.124023,-0.07441 0.260449,-0.07441 0.21084,0 0.334863,0.161231 0.136426,0.148828 0.136426,0.322461 0,0.08682 -0.03721,0.173632 z"
         style="font-style:normal;font-variant:normal;font-weight:normal;font-stretch:normal;font-size:25.39999962px;line-height:41.69833374px;font-family:Sacramento;-inkscape-font-specification:Sacramento;fill:#00aad4;stroke:#ffffff;stroke-width:2.64583325;stroke-miterlimit:4;stroke-dasharray:none;paint-order:stroke markers fill"
         id="path925" />
    </g>
  </g>
</svg>
