<?xml version="1.0" encoding="UTF-8" standalone="no"?>
<svg
   xmlns:dc="http://purl.org/dc/elements/1.1/"
   xmlns:cc="http://creativecommons.org/ns#"
   xmlns:rdf="http://www.w3.org/1999/02/22-rdf-syntax-ns#"
   xmlns:svg="http://www.w3.org/2000/svg"
   xmlns="http://www.w3.org/2000/svg"
   id="svg963"
   version="1.1"
   viewBox="0 0 64 40">
  <defs
     id="defs957" />
  <metadata
     id="metadata960">
    <rdf:RDF>
      <cc:Work
         rdf:about="">
        <dc:format>image/svg+xml</dc:format>
        <dc:type
           rdf:resource="http://purl.org/dc/dcmitype/StillImage" />
        <dc:title></dc:title>
      </cc:Work>
    </rdf:RDF>
  </metadata>
  <rect
     style="opacity:1;fill:#b3b3b3;fill-opacity:1;stroke:none;stroke-width:1;stroke-linecap:round;stroke-linejoin:miter;stroke-miterlimit:4;stroke-dasharray:none;stroke-dashoffset:0;stroke-opacity:1;paint-order:markers stroke fill"
     id="rect837"
     width="64"
     height="40"
     x="0"
     y="0" />
  <rect
     style="opacity:1;fill:#f2f2f2;fill-opacity:1;stroke:none;stroke-width:2.0754981;stroke-linecap:round;stroke-linejoin:miter;stroke-miterlimit:4;stroke-dasharray:none;stroke-dashoffset:0;stroke-opacity:1;paint-order:markers stroke fill"
     id="rect833"
     width="56"
     height="32"
     x="4"
     y="4" />
  <path
     id="path873"
     d="M 40.929688 8.3769531 C 39.845243 8.3769531 39.088776 8.6835417 38.662109 9.296875 C 38.235443 9.9102082 38.021484 10.808012 38.021484 11.990234 L 38.021484 15.804688 C 38.021484 16.924687 38.240226 17.803359 38.675781 18.443359 C 39.111337 19.07447 39.863021 19.390625 40.929688 19.390625 C 41.934132 19.390625 42.635156 19.105998 43.035156 18.537109 C 43.444045 17.959331 43.648438 17.134149 43.648438 16.058594 L 43.648438 15.257812 L 42.222656 15.257812 L 42.222656 16.058594 C 42.222656 16.56526 42.195911 16.964479 42.142578 17.257812 C 42.098133 17.551146 41.981589 17.782283 41.794922 17.951172 C 41.608255 18.120061 41.323628 18.205078 40.941406 18.205078 C 40.58585 18.205078 40.306006 18.13724 40.101562 18.003906 C 39.906006 17.870573 39.76467 17.649002 39.675781 17.337891 C 39.586893 17.026779 39.542969 16.596033 39.542969 16.044922 L 39.542969 11.763672 C 39.542969 11.248116 39.572546 10.839331 39.634766 10.537109 C 39.696988 10.225998 39.825928 9.9872479 40.021484 9.8183594 C 40.225928 9.6405816 40.532517 9.5507812 40.941406 9.5507812 C 41.341406 9.5507813 41.630816 9.6310156 41.808594 9.7910156 C 41.995258 9.9510153 42.111803 10.164974 42.15625 10.431641 C 42.200697 10.698307 42.222656 11.080347 42.222656 11.578125 L 42.222656 12.337891 L 43.648438 12.337891 L 43.648438 11.484375 C 43.648437 10.462153 43.436432 9.6885069 43.009766 9.1640625 C 42.591988 8.639618 41.898577 8.3769531 40.929688 8.3769531 z M 13.029297 8.4707031 L 13.029297 19.271484 L 14.535156 19.271484 L 14.535156 14.244141 L 15.722656 14.244141 C 16.584878 14.244141 17.241979 14.000608 17.695312 13.511719 C 18.148646 13.02283 18.375 12.337031 18.375 11.457031 C 18.375 10.479254 18.162995 9.7371354 17.736328 9.2304688 C 17.318551 8.7238021 16.642318 8.4707031 15.708984 8.4707031 L 13.029297 8.4707031 z M 21.484375 8.4707031 L 21.484375 19.271484 L 25.751953 19.271484 L 25.751953 18.191406 L 22.990234 18.191406 L 22.990234 8.4707031 L 21.484375 8.4707031 z M 31.154297 8.4707031 L 28.859375 19.271484 L 30.273438 19.271484 L 30.792969 16.550781 L 32.994141 16.550781 L 33.486328 19.271484 L 34.914062 19.271484 L 32.607422 8.4707031 L 31.154297 8.4707031 z M 46.757812 8.4707031 L 46.757812 19.271484 L 50.970703 19.271484 L 50.970703 18.191406 L 48.263672 18.191406 L 48.263672 14.230469 L 50.4375 14.230469 L 50.4375 13.164062 L 48.263672 13.164062 L 48.263672 9.5917969 L 50.945312 9.5917969 L 50.945312 8.4707031 L 46.757812 8.4707031 z M 14.535156 9.5507812 L 15.242188 9.5507812 C 15.748854 9.5507813 16.118498 9.6042708 16.349609 9.7109375 C 16.589609 9.8176042 16.748125 10.000035 16.828125 10.257812 C 16.908125 10.515591 16.949219 10.919592 16.949219 11.470703 C 16.949219 11.924036 16.895729 12.271719 16.789062 12.511719 C 16.682396 12.751719 16.504749 12.9198 16.255859 13.017578 C 16.01586 13.115356 15.67296 13.164063 15.228516 13.164062 L 14.535156 13.164062 L 14.535156 9.5507812 z M 31.886719 10.603516 L 32.792969 15.470703 L 30.994141 15.470703 L 31.886719 10.603516 z "
     style="font-style:normal;font-variant:normal;font-weight:normal;font-stretch:normal;font-size:13.33333302px;line-height:14px;font-family:Oswald;-inkscape-font-specification:Oswald;text-align:center;letter-spacing:2.1500001px;word-spacing:0px;text-anchor:middle;fill:#000000;fill-opacity:1;stroke:none;stroke-width:1px;stroke-linecap:butt;stroke-linejoin:miter;stroke-opacity:1" />
  <path
     id="path884"
     d="M 23.263672 20.609375 C 22.214783 20.609375 21.458316 20.898785 20.996094 21.476562 C 20.533871 22.05434 20.302734 22.901484 20.302734 24.021484 L 20.302734 28.115234 C 20.302734 29.253012 20.529089 30.124071 20.982422 30.728516 C 21.444645 31.324071 22.205895 31.623047 23.263672 31.623047 C 24.303672 31.623047 25.053402 31.319288 25.515625 30.714844 C 25.977847 30.110399 26.208984 29.248906 26.208984 28.128906 L 26.208984 24.021484 C 26.208984 22.910374 25.977847 22.066059 25.515625 21.488281 C 25.062292 20.901615 24.312561 20.609375 23.263672 20.609375 z M 13.029297 20.703125 L 13.029297 31.501953 L 14.535156 31.501953 L 14.535156 26.449219 L 17.308594 26.449219 L 17.308594 31.501953 L 18.814453 31.501953 L 18.814453 20.703125 L 17.308594 20.703125 L 17.308594 25.369141 L 14.535156 25.369141 L 14.535156 20.703125 L 13.029297 20.703125 z M 27.689453 20.703125 L 27.689453 31.501953 L 31.957031 31.501953 L 31.957031 30.421875 L 29.197266 30.421875 L 29.197266 20.703125 L 27.689453 20.703125 z M 32.976562 20.703125 L 32.976562 31.501953 L 35.443359 31.501953 C 36.545581 31.501953 37.331623 31.212543 37.802734 30.634766 C 38.282734 30.048099 38.523438 29.159861 38.523438 27.96875 L 38.523438 23.996094 C 38.523438 22.867204 38.277951 22.035286 37.789062 21.501953 C 37.309062 20.96862 36.488663 20.703125 35.324219 20.703125 L 32.976562 20.703125 z M 40.007812 20.703125 L 40.007812 31.501953 L 44.220703 31.501953 L 44.220703 30.421875 L 41.513672 30.421875 L 41.513672 26.462891 L 43.6875 26.462891 L 43.6875 25.396484 L 41.513672 25.396484 L 41.513672 21.822266 L 44.195312 21.822266 L 44.195312 20.703125 L 40.007812 20.703125 z M 45.423828 20.703125 L 45.423828 31.501953 L 46.931641 31.501953 L 46.931641 26.435547 L 48.105469 26.435547 L 49.517578 31.501953 L 50.970703 31.501953 L 49.4375 26.089844 C 50.326389 25.79651 50.771484 24.955026 50.771484 23.568359 C 50.771484 22.555026 50.513602 21.827257 49.998047 21.382812 C 49.49138 20.929479 48.69099 20.703125 47.597656 20.703125 L 45.423828 20.703125 z M 23.263672 21.783203 C 23.823672 21.783203 24.200928 21.941719 24.396484 22.261719 C 24.59204 22.57283 24.689453 23.057066 24.689453 23.714844 L 24.689453 28.449219 C 24.689453 29.115885 24.59204 29.612518 24.396484 29.941406 C 24.200928 30.270296 23.823672 30.435547 23.263672 30.435547 C 22.694783 30.435547 22.31079 30.270296 22.115234 29.941406 C 21.919678 29.612518 21.822266 29.115885 21.822266 28.449219 L 21.822266 23.714844 C 21.822266 23.057066 21.919678 22.57283 22.115234 22.261719 C 22.31079 21.941719 22.694783 21.783203 23.263672 21.783203 z M 46.931641 21.783203 L 47.597656 21.783203 C 48.05099 21.783203 48.401502 21.844305 48.650391 21.96875 C 48.899279 22.084305 49.074097 22.271519 49.171875 22.529297 C 49.269653 22.778186 49.318359 23.123915 49.318359 23.568359 C 49.318359 24.243915 49.17507 24.710972 48.890625 24.96875 C 48.61507 25.226528 48.152796 25.355469 47.503906 25.355469 L 46.931641 25.355469 L 46.931641 21.783203 z M 34.482422 21.822266 L 35.296875 21.822266 C 35.803542 21.822266 36.176016 21.9025 36.416016 22.0625 C 36.656016 22.213611 36.811701 22.454314 36.882812 22.783203 C 36.962812 23.103203 37.003906 23.568307 37.003906 24.181641 L 37.003906 27.689453 C 37.003906 28.400564 36.972376 28.933507 36.910156 29.289062 C 36.856823 29.635729 36.710703 29.91079 36.470703 30.115234 C 36.239592 30.319678 35.860382 30.421875 35.335938 30.421875 L 34.482422 30.421875 L 34.482422 21.822266 z "
     style="font-style:normal;font-variant:normal;font-weight:normal;font-stretch:normal;font-size:13.33333302px;line-height:14px;font-family:Oswald;-inkscape-font-specification:Oswald;text-align:center;letter-spacing:0px;word-spacing:0px;text-anchor:middle;fill:#000000;fill-opacity:1;stroke:none;stroke-width:1px;stroke-linecap:butt;stroke-linejoin:miter;stroke-opacity:1" />
</svg>
